<svg xmlns="http://www.w3.org/2000/svg" xmlns:xlink="http://www.w3.org/1999/xlink" width="256" height="256" viewBox="0 0 256 256" xml:space="preserve">
<desc>Created with Fabric.js 1.7.22</desc>
<defs>
</defs>
<g transform="translate(128 128) scale(0.72 0.72)" style="">
	<g style="stroke: none; stroke-width: 0; stroke-dasharray: none; stroke-linecap: butt; stroke-linejoin: miter; stroke-miterlimit: 10; fill: none; fill-rule: nonzero; opacity: 1;" transform="translate(-175.05 -175.05000000000004) scale(3.89 3.89)">
	<path d="M 18.831 22.581 c -2.806 1.908 -6.885 2.956 -7.607 6.271 c -0.082 0.376 -0.109 0.761 -0.12 1.148 H 46.41 c -0.118 -0.034 -0.239 -0.053 -0.357 -0.092 c -3.158 -1.057 -5.607 -4.825 -4.084 -7.786 c 0.303 -0.589 0.755 -1.224 0.537 -1.85 c -0.142 -0.409 -0.535 -0.669 -0.906 -0.891 c -1.586 -0.946 -3.256 -1.749 -4.986 -2.395 c -1.995 -1.504 3.074 -4.28 3.809 -9.069 c 0.07 -1.046 0.339 -3.805 -0.744 -4.196 c -0.437 -0.158 -2.093 0.485 -2.705 0.488 c -1.014 0.005 -2.035 -0.19 -3.004 -0.478 c -2.031 -0.604 -3.917 -1.618 -5.93 -2.28 c -2.483 -0.816 -5.895 -0.677 -6.891 1.739 c -0.857 2.078 0.691 4.273 1.558 6.346 C 24.602 14.067 22.893 19.819 18.831 22.581 z" style="stroke: none; stroke-width: 1; stroke-dasharray: none; stroke-linecap: butt; stroke-linejoin: miter; stroke-miterlimit: 10; fill: rgb(247,148,49); fill-rule: nonzero; opacity: 1;" transform=" matrix(1 0 0 1 0 0) " stroke-linecap="round"></path>
	<path d="M 81.256 20.928 c -3.462 0.507 -8.211 3.737 -10.645 6.25 c -1.187 1.226 -3.972 2.675 -5.672 2.525 c -0.983 -0.087 -1.807 -0.747 -2.725 -1.111 c -2.022 -0.802 -4.293 -0.115 -6.372 0.527 c -1.08 0.333 -2.191 0.646 -3.311 0.882 h 32.372 c 0.717 -1.986 0.721 -4.154 -0.383 -5.989 C 83.378 22.112 83.473 20.603 81.256 20.928 z" style="stroke: none; stroke-width: 1; stroke-dasharray: none; stroke-linecap: butt; stroke-linejoin: miter; stroke-miterlimit: 10; fill: rgb(247,148,49); fill-rule: nonzero; opacity: 1;" transform=" matrix(1 0 0 1 0 0) " stroke-linecap="round"></path>
	<path d="M 52.532 30 c -2.057 0.433 -4.14 0.571 -6.121 0 H 11.105 c -0.027 1.002 0.07 2.021 -0.291 2.947 c -1.119 2.87 -5.961 3.367 -6.21 6.437 c -0.137 1.698 1.329 3.06 2.718 4.047 c 2.52 1.791 5.286 3.359 7.198 5.789 c 2.032 2.581 2.89 5.867 3.7 9.051 c 0.146 0.576 0.29 1.152 0.435 1.729 h 28.621 c 0.028 -0.052 0.063 -0.097 0.089 -0.15 c 0.636 -1.278 0.795 -2.817 1.746 -3.881 c 1.862 -2.082 5.824 -1.359 7.301 -3.73 c 0.484 -0.777 0.62 -1.806 1.348 -2.363 c 0.988 -0.757 2.445 -0.206 3.631 -0.583 c 1.177 -0.374 1.893 -1.642 1.972 -2.875 c 0.079 -1.233 -0.354 -2.437 -0.838 -3.573 c -0.336 -0.788 -0.707 -1.646 -0.481 -2.472 c 0.398 -1.456 2.469 -1.814 3.773 -1.054 c 1.304 0.76 2.033 2.19 2.78 3.502 c 0.866 1.521 1.845 2.977 2.927 4.353 c 0.611 0.778 1.427 1.603 2.409 1.493 c 0.576 -0.065 1.069 -0.453 1.434 -0.903 c 1.535 -1.893 1.167 -4.652 1.881 -6.983 c 0.966 -3.153 3.812 -5.279 5.934 -7.803 c 0.744 -0.885 1.336 -1.905 1.723 -2.978 H 52.532 z" style="stroke: none; stroke-width: 1; stroke-dasharray: none; stroke-linecap: butt; stroke-linejoin: miter; stroke-miterlimit: 10; fill: rgb(247,247,247); fill-rule: nonzero; opacity: 1;" transform=" matrix(1 0 0 1 0 0) " stroke-linecap="round"></path>
	<path d="M 18.654 60 c 0.719 2.872 1.391 5.757 1.758 8.693 c 0.315 2.52 0.406 5.069 0.863 7.568 c 0.697 3.812 2.255 7.465 4.523 10.607 c 0.895 1.24 2.316 2.529 3.756 2.016 c 0.758 -0.27 1.26 -0.974 1.712 -1.639 c 2.634 -3.872 5.367 -8.042 5.445 -12.724 c 0.03 -1.819 -0.341 -3.699 0.25 -5.42 c 1.52 -4.425 8.118 -5.001 10.315 -9.1 H 18.654 z" style="stroke: none; stroke-width: 1; stroke-dasharray: none; stroke-linecap: butt; stroke-linejoin: miter; stroke-miterlimit: 10; fill: rgb(17,132,7); fill-rule: nonzero; opacity: 1;" transform=" matrix(1 0 0 1 0 0) " stroke-linecap="round"></path>
	<path d="M 28.892 89.999 c -1.328 0 -2.706 -0.886 -3.905 -2.545 c -2.35 -3.256 -3.974 -7.064 -4.696 -11.013 c -0.291 -1.595 -0.438 -3.214 -0.581 -4.779 c -0.086 -0.949 -0.172 -1.899 -0.291 -2.845 c -0.434 -3.475 -1.316 -6.944 -2.17 -10.299 c -0.741 -2.916 -1.581 -6.221 -3.516 -8.679 c -1.41 -1.789 -3.32 -3.084 -5.342 -4.455 c -0.554 -0.375 -1.108 -0.751 -1.65 -1.137 C 5.916 43.659 3.4 41.87 3.608 39.304 c 0.174 -2.15 1.969 -3.267 3.552 -4.253 c 1.196 -0.745 2.325 -1.448 2.723 -2.467 c 0.215 -0.552 0.215 -1.225 0.215 -1.938 c 0 -0.647 0 -1.317 0.15 -2.007 c 0.622 -2.857 3.271 -4.26 5.608 -5.498 c 0.868 -0.459 1.687 -0.894 2.413 -1.388 c 3.695 -2.512 5.24 -7.709 3.516 -11.832 c -0.175 -0.419 -0.379 -0.843 -0.584 -1.27 c -0.854 -1.775 -1.822 -3.788 -0.975 -5.843 c 1.186 -2.879 4.987 -3.34 8.127 -2.309 c 0.97 0.319 1.909 0.715 2.816 1.098 c 1.054 0.445 2.049 0.865 3.088 1.174 c 0.986 0.293 1.887 0.41 2.714 0.437 c 0.149 -0.003 0.629 -0.13 0.946 -0.213 c 0.969 -0.255 1.588 -0.4 2.102 -0.215 c 1.728 0.624 1.533 3.361 1.416 4.996 l -0.015 0.207 c -0.406 2.675 -1.935 4.713 -3.051 6.201 c -0.479 0.638 -1.194 1.592 -1.217 1.936 c 1.716 0.654 3.384 1.462 4.96 2.402 c 0.372 0.222 1.064 0.635 1.338 1.42 c 0.33 0.948 -0.123 1.774 -0.454 2.378 l -0.139 0.259 c -0.585 1.138 -0.338 2.286 -0.027 3.048 c 0.615 1.51 2.004 2.818 3.54 3.332 c 2.919 0.977 6.267 0.102 9.176 -0.797 c 2.08 -0.642 4.67 -1.44 7.035 -0.501 c 0.35 0.139 0.687 0.314 1.023 0.491 c 0.503 0.265 0.978 0.515 1.421 0.554 c 1.333 0.108 3.821 -1.147 4.865 -2.225 c 2.298 -2.372 7.297 -5.969 11.219 -6.543 c 2.382 -0.353 3.056 1.067 3.635 2.321 c 0.184 0.396 0.373 0.807 0.631 1.236 c 2.042 3.393 0.753 7.532 -1.432 10.127 c -0.611 0.728 -1.281 1.423 -1.929 2.095 c -1.639 1.702 -3.187 3.31 -3.814 5.357 c -0.232 0.76 -0.341 1.588 -0.455 2.465 c -0.219 1.684 -0.445 3.425 -1.605 4.854 c -0.603 0.743 -1.328 1.181 -2.099 1.268 c -1.519 0.161 -2.612 -0.985 -3.308 -1.868 c -1.11 -1.414 -2.123 -2.92 -3.01 -4.476 l -0.186 -0.329 c -0.651 -1.154 -1.266 -2.244 -2.228 -2.805 c -0.49 -0.286 -1.204 -0.333 -1.73 -0.118 c -0.312 0.127 -0.506 0.32 -0.574 0.572 c -0.132 0.482 0.152 1.149 0.428 1.794 c 0.539 1.267 1.018 2.616 0.926 4.052 c -0.097 1.482 -0.959 3.221 -2.668 3.764 c -0.644 0.204 -1.3 0.201 -1.873 0.196 c -0.615 -0.002 -1.146 -0.007 -1.452 0.228 c -0.248 0.189 -0.408 0.58 -0.594 1.032 c -0.138 0.333 -0.292 0.71 -0.514 1.065 c -0.989 1.587 -2.765 2.057 -4.331 2.473 c -1.23 0.325 -2.393 0.634 -3.073 1.394 c -0.459 0.515 -0.705 1.253 -0.966 2.035 c -0.179 0.534 -0.363 1.088 -0.631 1.626 c -1.146 2.304 -3.382 3.574 -5.543 4.804 c -2.124 1.207 -4.131 2.348 -4.81 4.326 c -0.354 1.031 -0.299 2.194 -0.24 3.427 c 0.027 0.563 0.053 1.127 0.044 1.685 c -0.086 5.137 -3.153 9.646 -5.618 13.27 c -0.44 0.648 -1.106 1.628 -2.202 2.018 C 29.563 89.942 29.229 89.999 28.892 89.999 z M 25.238 2.003 c -1.358 0 -2.679 0.394 -3.163 1.568 c -0.507 1.23 0.19 2.68 0.929 4.215 c 0.221 0.459 0.439 0.915 0.628 1.365 c 2.076 4.967 0.215 11.23 -4.237 14.257 c -0.817 0.556 -1.725 1.036 -2.602 1.5 c -2.143 1.135 -4.166 2.206 -4.59 4.157 c -0.104 0.479 -0.104 1.014 -0.104 1.581 c 0 0.826 0 1.762 -0.352 2.664 c -0.64 1.64 -2.175 2.595 -3.529 3.438 c -1.57 0.977 -2.529 1.648 -2.616 2.716 c -0.078 0.965 0.675 1.996 2.301 3.151 c 0.53 0.377 1.072 0.744 1.614 1.111 c 2.06 1.396 4.189 2.84 5.791 4.873 c 2.197 2.791 3.093 6.315 3.883 9.425 c 0.868 3.414 1.766 6.945 2.216 10.544 c 0.121 0.968 0.209 1.939 0.298 2.911 c 0.138 1.522 0.281 3.096 0.557 4.601 c 0.669 3.658 2.173 7.185 4.35 10.202 c 0.718 0.995 1.783 1.955 2.61 1.658 c 0.444 -0.158 0.815 -0.664 1.22 -1.26 c 2.315 -3.403 5.196 -7.639 5.272 -12.178 c 0.009 -0.516 -0.017 -1.036 -0.042 -1.556 c -0.065 -1.366 -0.133 -2.779 0.346 -4.173 c 0.925 -2.692 3.359 -4.076 5.713 -5.415 c 1.989 -1.13 3.867 -2.198 4.741 -3.955 c 0.205 -0.413 0.36 -0.877 0.524 -1.368 c 0.313 -0.94 0.638 -1.912 1.372 -2.734 c 1.08 -1.208 2.659 -1.626 4.052 -1.995 c 1.383 -0.366 2.576 -0.683 3.146 -1.598 c 0.133 -0.212 0.243 -0.481 0.36 -0.768 c 0.259 -0.629 0.552 -1.342 1.228 -1.859 c 0.848 -0.65 1.852 -0.643 2.681 -0.64 c 0.466 0.006 0.914 0.006 1.255 -0.103 c 0.77 -0.244 1.226 -1.185 1.277 -1.986 c 0.062 -0.96 -0.26 -1.941 -0.761 -3.117 c -0.38 -0.891 -0.842 -1.974 -0.526 -3.127 c 0.235 -0.859 0.855 -1.532 1.747 -1.896 c 1.101 -0.449 2.471 -0.354 3.495 0.241 c 1.431 0.835 2.244 2.277 2.963 3.55 l 0.182 0.322 c 0.838 1.471 1.795 2.894 2.844 4.23 c 0.617 0.784 1.12 1.176 1.513 1.115 c 0.231 -0.025 0.511 -0.223 0.769 -0.539 c 0.803 -0.99 0.983 -2.381 1.175 -3.853 c 0.12 -0.92 0.244 -1.871 0.526 -2.792 c 0.767 -2.504 2.556 -4.362 4.286 -6.158 c 0.624 -0.648 1.27 -1.319 1.839 -1.996 c 1.727 -2.051 2.781 -5.261 1.249 -7.808 c -0.315 -0.523 -0.537 -1.004 -0.733 -1.428 c -0.539 -1.166 -0.608 -1.314 -1.53 -1.182 c -3.096 0.454 -7.638 3.445 -10.072 5.956 c -1.264 1.307 -4.345 3.017 -6.477 2.825 c -0.844 -0.075 -1.553 -0.447 -2.177 -0.776 c -0.273 -0.144 -0.546 -0.289 -0.829 -0.401 c -1.715 -0.68 -3.836 -0.025 -5.708 0.553 c -3.207 0.991 -6.919 1.948 -10.401 0.782 c -2.097 -0.702 -3.92 -2.416 -4.758 -4.475 c -0.662 -1.627 -0.626 -3.302 0.102 -4.717 l 0.163 -0.305 c 0.107 -0.195 0.357 -0.651 0.319 -0.759 c -0.016 -0.038 -0.098 -0.136 -0.475 -0.36 c -1.531 -0.914 -3.154 -1.693 -4.824 -2.318 c -0.09 -0.034 -0.175 -0.08 -0.252 -0.138 c -1.816 -1.369 -0.389 -3.271 0.757 -4.8 c 1.044 -1.393 2.344 -3.126 2.665 -5.22 l 0.005 -0.13 c 0.138 -1.927 0.009 -2.649 -0.117 -2.919 c -0.246 0.043 -0.639 0.146 -0.898 0.214 c -0.565 0.148 -1.054 0.277 -1.445 0.279 c -0.985 0.012 -2.12 -0.17 -3.293 -0.52 c -1.145 -0.34 -2.238 -0.802 -3.296 -1.248 c -0.91 -0.384 -1.77 -0.747 -2.663 -1.041 C 27.032 2.172 26.127 2.003 25.238 2.003 z" style="stroke: none; stroke-width: 1; stroke-dasharray: none; stroke-linecap: butt; stroke-linejoin: miter; stroke-miterlimit: 10; fill: rgb(0,0,0); fill-rule: nonzero; opacity: 1;" transform=" matrix(1 0 0 1 0 0) " stroke-linecap="round"></path>
	<path d="M 34 51.844 c -3.774 0 -6.844 -3.07 -6.844 -6.844 c 0 -3.774 3.07 -6.844 6.844 -6.844 c 3.774 0 6.844 3.07 6.844 6.844 C 40.844 48.773 37.774 51.844 34 51.844 z M 34 40.156 c -2.671 0 -4.844 2.173 -4.844 4.844 S 31.33 49.844 34 49.844 s 4.844 -2.173 4.844 -4.844 S 36.671 40.156 34 40.156 z" style="stroke: none; stroke-width: 1; stroke-dasharray: none; stroke-linecap: butt; stroke-linejoin: miter; stroke-miterlimit: 10; fill: rgb(0,0,0); fill-rule: nonzero; opacity: 1;" transform=" matrix(1 0 0 1 0 0) " stroke-linecap="round"></path>
	<circle cx="34" cy="45" r="1.5" style="stroke: none; stroke-width: 1; stroke-dasharray: none; stroke-linecap: butt; stroke-linejoin: miter; stroke-miterlimit: 10; fill: rgb(0,0,0); fill-rule: nonzero; opacity: 1;" transform="  matrix(1 0 0 1 0 0) "></circle>
</g>
</g>
</svg>